<?xml version="1.0" encoding="utf-8"?>
<!-- Generator: Adobe Illustrator 18.1.1, SVG Export Plug-In . SVG Version: 6.00 Build 0)  -->
<svg version="1.1" id="Layer_1" xmlns="http://www.w3.org/2000/svg" xmlns:xlink="http://www.w3.org/1999/xlink" x="0px" y="0px"
	 viewBox="0 0 65 65" enable-background="new 0 0 65 65" xml:space="preserve">
<g>
	<path d="M44.1,19.8h-3V4.3c0-2.3-0.7-3.4-2.8-3.5C38,0.3,37.5,0,36.8,0h-8.7c-0.6,0-1.2,0.3-1.4,0.7c-2.1,0.1-2.8,1.1-2.8,3.5v15.5
		h-3c-3,0-5.5,2.5-5.5,5.5v34.3c0,3,2.5,5.5,5.5,5.5h23.2c3,0,5.5-2.5,5.5-5.5V25.3C49.5,22.3,47.1,19.8,44.1,19.8z M25.7,4.2
		c0-0.9,0.3-1.4,1.1-1.4c0.3,0.3,0.8,0.6,1.3,0.6h8.7c0.5,0,1-0.2,1.3-0.6c0.7,0,1.2,0.5,1.2,1.4v15.6H25.7V4.2z M43.6,41.2l-13.1,4
		c-5.6,1.3-9.5,1.1-11,0.7c-0.5-0.1-0.7-0.2-0.7-0.4c0-0.2,0.2-0.4,0.6-0.6c0.4-0.2,0.9-0.4,1.3-0.6c0,0-3-2.1-3.2-2.2
		c-0.2-0.1-0.2-0.3,0.1-0.4c0.2-0.1,1-0.3,1.2-0.3c0.2-0.1,0.5,0,0.8,0.1l4.8,1.6l5-1.5l-6.6-1.5c-0.3-0.1-0.3-0.3,0-0.4
		c0.3-0.1,1.7-0.4,2-0.5c0.3-0.1,0.7-0.2,1.1-0.1l10,0.6c0,0,4.8-1.5,6.9-2.1c2-0.6,4.5,0.5,4.7,1.1C47.8,39.5,46.2,40.4,43.6,41.2z
		"/>
	<path fill="#FFF100" d="M18.8,45.6c0,0.1,0.3,0.3,0.7,0.4c1.5,0.3,5.4,0.5,11-0.7l13.1-4c2.6-0.8,4.2-1.7,3.9-2.6
		c-0.2-0.6-2.7-1.7-4.7-1.1c-2,0.6-6.9,2.1-6.9,2.1l-10-0.6c-0.4,0-0.8,0.1-1.1,0.1c-0.3,0.1-1.7,0.4-2,0.5c-0.3,0.1-0.3,0.3,0,0.4
		l6.6,1.5l-5,1.5l-4.8-1.6c-0.3-0.1-0.6-0.2-0.8-0.1c-0.3,0.1-1,0.3-1.2,0.3c-0.3,0.1-0.3,0.3-0.1,0.4c0.2,0.1,3.2,2.2,3.2,2.2
		c-0.4,0.2-0.9,0.4-1.3,0.6C19,45.2,18.8,45.4,18.8,45.6z"/>
</g>
</svg>
