<?xml version="1.0" encoding="utf-8"?>
<!-- Generator: Adobe Illustrator 18.1.1, SVG Export Plug-In . SVG Version: 6.00 Build 0)  -->
<svg version="1.1" id="Layer_1" xmlns="http://www.w3.org/2000/svg" xmlns:xlink="http://www.w3.org/1999/xlink" x="0px" y="0px"
	 viewBox="297 232.3 46 15.5" enable-background="new 297 232.3 46 15.5" xml:space="preserve">
<g>
	<path d="M343,245.2c0-1.3-2.8-2.3-4.1-2.3c-4.7,0-9.5,0-14.2,0.1l-12.9-10.8l-2.1,1.2l3.8,9.7c-4.5,0.1-12.9,0.2-14.4,0.2
		c-1.3,0,7,4.1,9.1,4.4c0,0,17,0,24.5,0c1.9,0,3.9,0,5.8,0C340,247.7,343,246.6,343,245.2L343,245.2z"/>
	<polygon points="297,237.9 299,242.6 304,242.5 298.5,237.2 	"/>
</g>
</svg>
