<?xml version="1.0" encoding="utf-8"?>
<!-- Generator: Adobe Illustrator 18.1.1, SVG Export Plug-In . SVG Version: 6.00 Build 0)  -->
<svg version="1.1" id="Layer_1" xmlns="http://www.w3.org/2000/svg" xmlns:xlink="http://www.w3.org/1999/xlink" x="0px" y="0px"
	 viewBox="0 0 65 65" enable-background="new 0 0 65 65" xml:space="preserve">
<g>
	<path d="M56.6,9.6h-0.8c-16.8,0-22-8.4-22-8.5L33.2,0l-0.7,1C27.4,9,9.4,9.6,9.2,9.6l-0.7,0L8.4,42.4l0,0.2
		c2.3,11,22.9,21.8,23.7,22.2l0.4,0.2l0.4-0.2c23.4-13,23.7-22,23.7-22.4L56.6,9.6z"/>
	<polygon fill="#FFE600" points="44.5,29.6 35.4,29.6 35.4,20.5 29.6,20.5 29.6,29.6 20.5,29.6 20.5,35.4 29.6,35.4 29.6,44.5 
		35.4,44.5 35.4,35.4 44.5,35.4 	"/>
</g>
</svg>
