<?xml version="1.0" encoding="utf-8"?>
<!-- Generator: Adobe Illustrator 18.1.1, SVG Export Plug-In . SVG Version: 6.00 Build 0)  -->
<svg version="1.1" id="Layer_2" xmlns="http://www.w3.org/2000/svg" xmlns:xlink="http://www.w3.org/1999/xlink" x="0px" y="0px"
	 viewBox="0 0 25 25" enable-background="new 0 0 25 25" xml:space="preserve">
<g>
	<path d="M2.6,3.6C2.5,3.6,2.4,3.8,2.4,4v2.4H1.7V4c0-0.2-0.1-0.4-0.2-0.4C1.4,3.6,1.3,3.8,1.3,4v2.4H0.6V4c0-0.2-0.1-0.4-0.2-0.4
		C0.3,3.6,0.2,3.8,0.2,4v2.8v0.8v0.1c0,0.6,0.4,1,0.7,1.2C1,9,1.1,9.2,1.1,9.5c0,0.3-0.1,10.9-0.1,10.9c0,0.2,0.2,0.4,0.4,0.4h0.4
		c0.2,0,0.4-0.2,0.4-0.4C2.1,20.4,2,9.8,2,9.5C2,9.2,2,9,2.2,8.9c0.3-0.2,0.6-0.6,0.6-1.2V7.6V6.7V4C2.8,3.8,2.7,3.6,2.6,3.6z"/>
	<path d="M24.8,6.7c0-1.5-1.1-3.1-1.9-3.1C22,3.6,21,5.1,21,6.7c0,1.5,0.8,2.1,1.4,2.4c0.1,0.1,0.1,0.3,0.1,0.5
		c0,0.3-0.2,10.8-0.2,10.8c0,0.2,0.2,0.4,0.4,0.4h0.4c0.2,0,0.4-0.2,0.4-0.4c0,0-0.2-10.5-0.2-10.8c0-0.3,0-0.5,0.2-0.5
		C24,8.8,24.8,8.2,24.8,6.7z"/>
	<circle cx="12.2" cy="12.7" r="8.7"/>
</g>
</svg>
