<?xml version="1.0" encoding="utf-8"?>
<!-- Generator: Adobe Illustrator 18.1.1, SVG Export Plug-In . SVG Version: 6.00 Build 0)  -->
<svg version="1.1" id="Layer_1" xmlns="http://www.w3.org/2000/svg" xmlns:xlink="http://www.w3.org/1999/xlink" x="0px" y="0px"
	 viewBox="0 0 65 65" enable-background="new 0 0 65 65" xml:space="preserve">
<g>
	<path d="M53.9,13.5H38l6.2-7.4c0.5,0.3,1,0.5,1.6,0.5c1.8,0,3.3-1.5,3.3-3.3C49,1.5,47.6,0,45.8,0s-3.3,1.5-3.3,3.3
		c0,0.5,0.1,1,0.4,1.5l-9.5,8.8h-1.7l-9.5-8.8c0.2-0.4,0.4-0.9,0.4-1.5C22.5,1.5,21,0,19.2,0C17.4,0,16,1.5,16,3.3
		c0,1.8,1.5,3.3,3.3,3.3c0.6,0,1.2-0.2,1.6-0.5l6.2,7.4H11.1c-4.2,0-7.5,3.4-7.5,7.5v30.6c0,4.2,3.4,7.5,7.5,7.5h0.4V65l5.9-5.9
		h28.4l5.9,5.9v-5.9h2.3c4.2,0,7.5-3.4,7.5-7.5V21C61.5,16.9,58.1,13.5,53.9,13.5z M53.6,34.4c1.6,0,2.9,1.3,2.9,2.9
		c0,1.6-1.3,2.9-2.9,2.9c-1.6,0-2.9-1.3-2.9-2.9C50.7,35.7,52,34.4,53.6,34.4z M47.8,50.2c0,1.9-1.6,3.5-3.5,3.5H11.2
		c-1.9,0-3.5-1.6-3.5-3.5V22.6c0-1.9,1.6-3.5,3.5-3.5h33.1c1.9,0,3.5,1.6,3.5,3.5V50.2z M53.6,51.1c-2.1,0-3.7-1.7-3.7-3.7
		c0-2.1,1.7-3.7,3.7-3.7c2.1,0,3.7,1.7,3.7,3.7C57.3,49.5,55.6,51.1,53.6,51.1z"/>
	<g>
		<circle fill="#FFF100" cx="53.6" cy="47.4" r="3.7"/>
		<circle fill="#FFF100" cx="53.6" cy="37.3" r="2.9"/>
		<path fill="#FFF100" d="M11.2,19.1c-1.9,0-3.5,1.6-3.5,3.5v27.6c0,1.9,1.6,3.5,3.5,3.5h33.1c1.9,0,3.5-1.6,3.5-3.5V22.6
			c0-1.9-1.6-3.5-3.5-3.5H11.2z"/>
	</g>
</g>
</svg>
