<?xml version="1.0" encoding="utf-8"?>
<!-- Generator: Adobe Illustrator 18.1.1, SVG Export Plug-In . SVG Version: 6.00 Build 0)  -->
<svg version="1.1" id="Layer_1" xmlns="http://www.w3.org/2000/svg" xmlns:xlink="http://www.w3.org/1999/xlink" x="0px" y="0px"
	 viewBox="0 0 65 65" enable-background="new 0 0 65 65" xml:space="preserve">
<path d="M23.6,13.3l4.1,4.4h11.5l-7-15.2c-0.3-0.4-0.2-0.8,0.3-0.8h2.2c0.4,0,1,0.4,1.3,0.8l12,15.2l10.5,0c3.6,0,6.5,1.1,6.5,2.4
	c0,1.3-2.9,2.4-6.5,2.4c-0.5,0-10.4-0.1-10.4-0.1L36,37.7c-0.3,0.4-0.9,0.8-1.3,0.8h-2.2c-0.4,0-0.5-0.4-0.3-0.8l7.1-15.3H27.7
	l-4.1,4.5h-3l2.1-4.8c-2.5-0.3-4.3-1-4.3-1.9c0-0.9,1.8-1.6,4.3-1.9l-2.1-4.9H23.6z M41.4,38h3l-2.1,4.9c2.5,0.3,4.3,1,4.3,1.9
	c0,0.9-1.8,1.6-4.3,1.9l2.1,4.8h-3l-4.1-4.4H25.6l7.1,15.3c0.3,0.4,0.2,0.8-0.3,0.8h-2.2c-0.4,0-1-0.3-1.3-0.8L16.9,47.1
	c0,0-9.9,0.1-10.4,0.1c-3.6,0-6.5-1.1-6.5-2.4c0-1.3,2.9-2.4,6.5-2.4l10.5,0l12-15.2c0.3-0.4,0.9-0.8,1.3-0.8h2.2
	c0.4,0,0.5,0.3,0.3,0.8l-7,15.2h11.5L41.4,38z"/>
</svg>
