<?xml version="1.0" encoding="utf-8"?>
<!-- Generator: Adobe Illustrator 18.1.1, SVG Export Plug-In . SVG Version: 6.00 Build 0)  -->
<svg version="1.1" id="Layer_2" xmlns="http://www.w3.org/2000/svg" xmlns:xlink="http://www.w3.org/1999/xlink" x="0px" y="0px"
	 viewBox="0 0 25 25" enable-background="new 0 0 25 25" xml:space="preserve">
<path fill="#231F20" d="M15.2,14.2l-7.1,0c-0.4,0-0.6-0.2-0.7-0.5L5.1,6.5c-0.2-0.5,0.1-1.1,0.7-1L7,5.6c0.8,0.1,1.5,0.6,1.7,1.2
	c0,0,1.4,4.6,1.5,4.9c0.2,0.5,0.4,0.7,1.1,0.8c0.3,0,3.9,0.5,3.9,0.5c0.4,0.1,0.8,0.2,0.8,0.6C16,14,15.7,14.2,15.2,14.2z
	 M19.3,16.2c-0.2-0.3-0.5-0.3-0.6,0c0,0-0.3,1.9-0.4,2.2c-0.1,0.3,0,0.4,0.2,0.6c0.2,0.2,3.9,3.9,4.3,4.3c0.3,0.3,0.9,0.4,1.2,0.2
	c0.3-0.3,0.3-0.7,0.1-1L19.3,16.2z M6.4,1.5C5.5,1.3,4.6,2,4.5,2.9C4.4,3.9,5,4.7,6,4.8c0.9,0.1,1.8-0.5,1.9-1.5
	C8,2.4,7.3,1.6,6.4,1.5z M16.6,19.5c0.4-0.3,0.4-0.9,0.4-0.9l0.3-2.2c0.1-0.8-0.4-1.3-1.2-1.2c0,0-7.6,0.1-8.5,0.1
	c-0.7,0-1-0.1-1.2-0.6C6.3,14.4,3,4.3,3,4.3S2.8,3.8,2.4,3.7c-0.3,0-0.8,0-1,0C1,3.7,0.7,4,0.9,4.5c0,0,2.7,8.8,4.3,14
	c0.1,0.4,0.3,0.8,0.6,1c0.3,0.2,1,0.3,1,0.3h8.8C15.6,19.7,16.2,19.8,16.6,19.5z"/>
</svg>
