<?xml version="1.0" encoding="utf-8"?>
<!-- Generator: Adobe Illustrator 18.1.1, SVG Export Plug-In . SVG Version: 6.00 Build 0)  -->
<svg version="1.1" id="Layer_1" xmlns="http://www.w3.org/2000/svg" xmlns:xlink="http://www.w3.org/1999/xlink" x="0px" y="0px"
	 viewBox="0 0 65 65" enable-background="new 0 0 65 65" xml:space="preserve">
<g>
	<path d="M50.7,37.7c0,4.7-3.8,8.5-8.5,8.5c-5.8,0-8.8-7.8-11.9-7.8c-3.1,0-6,7.8-11.8,7.8c-4.7,0-8.5-3.8-8.5-8.5s3.8-8.5,8.5-8.5
		c0.2,0,0.4,0,0.6,0c0.1,0,0.1,0,0.1,0h22.2c0.1,0,0.1,0,0.2,0c0.2,0,0.4,0,0.6,0C46.9,29.2,50.7,33,50.7,37.7z"/>
	<g>
		<path d="M48.6,19.4C48.6,19.4,48.6,19.4,48.6,19.4c0-0.1,0-0.1,0.1-0.2c0-0.1,0-0.1,0-0.2c0,0,0,0,0,0c0,0,0,0,0,0
			c0-0.3-0.1-0.5-0.3-0.7c-0.2-0.2-0.5-0.3-0.8-0.3h-5.4c-0.6,0-1,0.5-1,1c0,0.6,0.5,1,1,1h2.9l-3.5,3.5c-0.3,0.2-0.5,0.5-0.5,0.9
			c0,0.3,0.1,0.6,0.3,0.7c0,0,0,0,0,0c0.3,0.3,0.6,0.3,0.9,0.3h5.2c0.6,0,1-0.5,1-1c0-0.6-0.5-1-1-1h-2.9l3.6-3.6
			C48.5,19.7,48.6,19.6,48.6,19.4z"/>
		<path d="M55.9,13C56,13,56,13,55.9,13c0-0.1,0-0.1,0-0.1c0,0,0-0.1,0-0.1c0,0,0,0,0,0l0,0c0-0.2-0.1-0.4-0.2-0.5
			c-0.1-0.1-0.3-0.2-0.5-0.2h-3.8c-0.4,0-0.7,0.3-0.7,0.7c0,0.4,0.3,0.7,0.7,0.7h2.1l-2.5,2.4c-0.2,0.1-0.4,0.4-0.4,0.6
			c0,0.2,0.1,0.4,0.2,0.5c0,0,0,0,0,0c0.2,0.2,0.4,0.2,0.7,0.2h3.6c0.4,0,0.7-0.3,0.7-0.7c0-0.4-0.3-0.7-0.7-0.7h-2l2.5-2.5
			C55.9,13.2,55.9,13.1,55.9,13z"/>
	</g>
</g>
</svg>
