<?xml version="1.0" encoding="utf-8"?>
<!-- Generator: Adobe Illustrator 18.1.1, SVG Export Plug-In . SVG Version: 6.00 Build 0)  -->
<svg version="1.1" id="Layer_1" xmlns="http://www.w3.org/2000/svg" xmlns:xlink="http://www.w3.org/1999/xlink" x="0px" y="0px"
	 viewBox="0 0 65 65" enable-background="new 0 0 65 65" xml:space="preserve">
<g>
	<g>
		<path fill="#1D1D1B" d="M54.8,42.3C50.4,43.7,40,46.8,40,46.8l-21.6-1.2c-0.8,0-1.8,0.2-2.3,0.3c-0.6,0.1-3.6,0.9-4.2,1.1
			c-0.7,0.2-0.7,0.7-0.1,0.8L26,51.1l-10.7,3.2L4.9,50.9c-0.7-0.3-1.2-0.3-1.7-0.2c-0.5,0.1-2.2,0.6-2.6,0.7
			c-0.6,0.2-0.7,0.6-0.2,0.9c0.5,0.3,6.9,4.8,6.9,4.8c-0.9,0.4-2,0.9-2.9,1.3C3.5,58.9,3,59.2,3,59.7c0.1,0.3,0.6,0.6,1.6,0.8
			c3.3,0.7,11.7,1.2,23.7-1.6l28.1-8.6c5.5-1.7,9-3.8,8.5-5.6C64.5,43.3,59.1,41,54.8,42.3"/>
		<path d="M10.4,18.4c6.2-6.4,14.3-9.6,22.6-9.6c7.8,0,15.7,2.9,21.8,8.8c1,0.9,2.5,0.9,3.4-0.1c0.9-1,0.9-2.5-0.1-3.4
			C51,7.3,42,4,32.9,4C23.5,4,14,7.7,6.9,15C6,16,6,17.5,6.9,18.4C7.9,19.4,9.4,19.3,10.4,18.4L10.4,18.4z"/>
		<path d="M20.1,27.8c3.5-3.6,8.2-5.4,12.8-5.4c4.5,0,8.9,1.7,12.4,5c1,0.9,2.5,0.9,3.4-0.1c0.9-1,0.9-2.5-0.1-3.4
			c-4.4-4.2-10.1-6.4-15.8-6.4c-5.9,0-11.9,2.3-16.3,6.9c-0.9,1-0.9,2.5,0.1,3.4C17.6,28.7,19.2,28.7,20.1,27.8L20.1,27.8z"/>
		<path d="M29.8,37.1c0.9-0.9,2-1.3,3.1-1.3c1.1,0,2.2,0.4,3,1.2c1,0.9,2.5,0.9,3.4-0.1c0.9-1,0.9-2.5-0.1-3.4
			c-1.8-1.7-4.1-2.6-6.4-2.6c-2.4,0-4.8,0.9-6.6,2.8c-0.9,1-0.9,2.5,0.1,3.4C27.3,38.1,28.9,38.1,29.8,37.1L29.8,37.1z"/>
	</g>
	<g>
		<path fill="#FFE900" d="M45.3,27.3c-3.5-3.3-7.9-5-12.4-5c-4.7,0-9.3,1.8-12.8,5.4h0c-0.1,0.1-0.1,0.1-0.2,0.1l6.2,6.1
			c0.1-0.1,0.1-0.2,0.2-0.3c1.8-1.9,4.2-2.8,6.6-2.8c2.3,0,4.6,0.9,6.4,2.6c0.1,0.1,0.3,0.3,0.4,0.4l6.1-6.4
			C45.6,27.6,45.4,27.4,45.3,27.3z"/>
		<path fill="#FFE900" d="M54.7,17.6c-6.1-5.9-13.9-8.8-21.8-8.8c-8.2,0-16.4,3.2-22.6,9.6h0c0,0,0,0,0,0l6.2,6.1
			c0,0,0.1-0.1,0.1-0.1c4.4-4.6,10.4-6.9,16.3-6.9c5.7,0,11.4,2.1,15.8,6.4c0.1,0.1,0.2,0.3,0.3,0.4l6.1-6.3
			C54.9,17.8,54.8,17.7,54.7,17.6z"/>
	</g>
</g>
</svg>
